<?xml version="1.0" encoding="UTF-8"?>
<svg id="Layer_2" data-name="Layer 2" xmlns="http://www.w3.org/2000/svg" viewBox="0 0 343.06 296.96">
  <defs>
    <style>
      .cls-1 {
        fill: #4a59a7;
        opacity: .8;
        stroke: #231f20;
      }

      .cls-1, .cls-2, .cls-3 {
        stroke-miterlimit: 10;
      }

      .cls-2 {
        fill: #42ba83;
        opacity: .5;
        stroke: #2c317a;
      }

      .cls-3 {
        fill: #f68940;
        stroke: #ed2872;
      }
    </style>
  </defs>
  <g id="Layer_1-2" data-name="Layer 1">
    <path class="cls-2" d="M172.85,159.25c54.24-37.9,123.16-59.8,169.5,19.45,0,0-134.8,55.93-151.71,19.19l-17.78-38.63Z"/>
    <path class="cls-2" d="M175.02,159.45c44.37,29.13,139.66,46.21,125.28,136.87,0,0-111.31-31.79-128.33-71.25-16.02-37.14,3.05-65.62,3.05-65.62Z"/>
    <path class="cls-1" d="M74.08,134.49c9.27-4.93-113.76-36.97-59.87-101.21,3.1-3.7,29.35-21.2,47.68-8.18,9.41,6.68,65.74,94.12,60.64,42.96-4.1-41.13,7.77-48.85,51.53-64.4,47.62-16.92,46.68,37.74,15.37,77.4-32.71,41.43,99.63-24.43,79.76,68.74-15.29,71.71-63.34,25.41-79.12,62.69-59.45,140.45-73.02-10.25-85.69-5.99-151.79,51.06-54.21-59.31-30.3-72.01Z"/>
    <circle class="cls-3" cx="141.94" cy="131.25" r="16.67"/>
  </g>
</svg>